<svg xmlns="http://www.w3.org/2000/svg" viewBox="0 0 131 131" fill="none">
<path d="M131 65.5C131 101.674 101.674 131 65.5 131C29.3294 131 0 101.674 0 65.5C0 29.3294 29.3294 0 65.5 0C101.674 0 131 29.3294 131 65.5Z" fill="#DA2F47"/>
<path d="M92.7371 108.726C92.5734 108.075 88.4869 92.7917 65.5 92.7917C42.5095 92.7917 38.4267 108.075 38.263 108.726C38.0628 109.516 38.4194 110.335 39.1254 110.742C39.8349 111.139 40.7228 111.03 41.3087 110.462C41.3778 110.393 48.4191 103.708 65.5 103.708C82.581 103.708 89.6259 110.393 89.6914 110.459C90.0407 110.804 90.5065 110.986 90.9723 110.986C91.2779 110.986 91.5872 110.91 91.8674 110.753C92.5806 110.346 92.9373 109.52 92.7371 108.726V108.726ZM57.1561 55.6496C45.3115 43.805 26.2764 43.6667 25.4723 43.6667C23.4636 43.6667 21.837 45.2933 21.837 47.2984C21.8334 49.307 23.4599 50.9372 25.4686 50.9445C25.5741 50.9445 32.4735 51.0282 39.9623 53.6264C37.8045 55.9553 36.3889 59.5723 36.3889 63.6806C36.3889 70.7182 40.4608 76.4167 45.4861 76.4167C50.5114 76.4167 54.5834 70.7182 54.5834 63.6806C54.5834 63.0475 54.5142 62.4434 54.4487 61.8357C54.496 61.8357 54.5397 61.8612 54.5834 61.8612C55.5149 61.8612 56.4465 61.5046 57.1561 60.795C58.5789 59.3722 58.5789 57.0724 57.1561 55.6496V55.6496ZM105.528 43.6667C104.724 43.6667 85.6922 43.805 73.844 55.6496C72.4212 57.0724 72.4212 59.3722 73.844 60.795C74.5536 61.5046 75.4851 61.8612 76.4167 61.8612C76.464 61.8612 76.504 61.8357 76.5477 61.8357C76.4895 62.4434 76.4167 63.0475 76.4167 63.6806C76.4167 70.7182 80.4886 76.4167 85.5139 76.4167C90.5392 76.4167 94.6111 70.7182 94.6111 63.6806C94.6111 59.5723 93.1956 55.9553 91.0378 53.6264C98.5266 51.0282 105.426 50.9445 105.535 50.9445C107.54 50.9372 109.167 49.307 109.163 47.2984C109.159 45.2933 107.536 43.6667 105.528 43.6667V43.6667Z" fill="#292F33"/>
<path d="M108.217 120.083H22.7831C18.2563 120.083 14.5556 116.383 14.5556 111.856V90.9722C14.5556 86.4454 18.2563 82.7446 22.7831 82.7446H108.217C112.744 82.7446 116.444 86.4454 116.444 90.9722V111.856C116.444 116.383 112.744 120.083 108.217 120.083Z" fill="#292F33"/>
<path d="M28.5326 99.0836H25.556C24.4134 99.0836 23.893 98.2503 23.893 97.4206C23.893 96.5909 24.4134 95.7613 25.556 95.7613H29.0129L29.7734 90.1938C29.9445 88.9493 30.4648 88.5344 31.5019 88.5344C32.3316 88.5344 33.0957 89.0839 33.0957 89.9172C33.0957 90.4376 33.0957 90.1938 33.0266 90.7505L32.3352 95.7649H35.6575L36.418 90.1974C36.5891 88.9529 37.1094 88.5381 38.1465 88.5381C38.9762 88.5381 39.7404 89.0876 39.7404 89.9209C39.7404 90.4412 39.7404 90.1974 39.6712 90.7542L38.9762 95.7686H41.9528C43.0954 95.7686 43.6121 96.6019 43.6121 97.4279C43.6121 98.2576 43.0918 99.0909 41.9528 99.0909H38.4922L37.9391 103.032H40.9157C42.0583 103.032 42.575 103.865 42.575 104.695C42.575 105.524 42.0547 106.354 40.9157 106.354H37.4551L36.6946 111.922C36.5199 113.17 35.9996 113.581 34.9625 113.581C34.1328 113.581 33.3687 113.031 33.3687 112.198C33.3687 111.678 33.3687 111.922 33.4378 111.365L34.1328 106.35H30.8142L30.0536 111.918C29.879 113.166 29.3622 113.577 28.3215 113.577C27.4919 113.577 26.7277 113.028 26.7277 112.194C26.7277 111.674 26.7277 111.918 26.7968 111.361L27.4882 106.347H24.5189C23.3799 106.347 22.8595 105.513 22.8595 104.687C22.8595 103.854 23.3799 103.024 24.5189 103.024H27.9795L28.5326 99.0836V99.0836ZM31.3345 103.024H34.6204L35.1735 99.0836H31.8876L31.3345 103.024ZM48.1316 93.9273C48.1316 90.9179 50.3805 88.3234 53.459 88.3234C56.5375 88.3234 58.7863 90.9179 58.7863 93.9273C58.7863 96.9366 56.5375 99.4984 53.459 99.4984C50.3768 99.5021 48.1316 96.9403 48.1316 93.9273ZM55.2566 93.9273C55.2566 92.8211 54.5979 91.8531 53.459 91.8531C52.3164 91.8531 51.6577 92.8247 51.6577 93.9273C51.6577 95.0371 52.3164 95.9723 53.459 95.9723C54.5979 95.9723 55.2566 95.0371 55.2566 93.9273ZM63.6624 89.2258C64.1136 88.3634 64.4593 88.1196 65.2562 88.1196C66.3297 88.1196 67.2977 88.982 67.2977 90.0555C67.2977 90.332 67.2977 90.5759 67.0211 91.0926L55.3985 112.849C54.8781 113.574 54.6707 113.988 53.841 113.988C52.9422 113.988 51.8688 113.126 51.8688 112.089C51.8688 111.569 52.0762 111.088 52.2145 110.808L63.6624 89.2258ZM60.3074 108.217C60.3074 105.208 62.5562 102.613 65.6347 102.613C68.7132 102.613 70.962 105.208 70.962 108.217C70.962 111.223 68.7132 113.785 65.6347 113.785C62.5525 113.788 60.3074 111.223 60.3074 108.217ZM67.4323 108.217C67.4323 107.107 66.7737 106.143 65.631 106.143C64.4884 106.143 63.8298 107.111 63.8298 108.217C63.8298 109.323 64.4884 110.259 65.631 110.259C66.7737 110.259 67.4323 109.323 67.4323 108.217ZM76.4786 111.088C76.4786 109.6 77.6903 108.388 79.175 108.388C80.6633 108.388 81.875 109.6 81.875 111.088C81.875 112.573 80.6633 113.785 79.175 113.785C77.6903 113.788 76.4786 112.577 76.4786 111.088ZM76.686 90.6777C76.686 89.2258 77.7558 88.327 79.175 88.327C80.5614 88.327 81.6676 89.2622 81.6676 90.6777V103.996C81.6676 105.415 80.5614 106.347 79.175 106.347C77.7558 106.347 76.686 105.448 76.686 103.996V90.6777ZM106.081 113.992C105.4 113.992 104.975 113.799 104.513 113.279L101.878 110.404L101.616 110.644C99.0615 112.991 96.8563 113.988 94.2509 113.988C90.2154 113.988 86.1398 111.689 86.1398 106.551C86.1398 102.522 89.2947 100.113 91.176 99.0363L91.6018 98.7925L91.2561 98.4359C89.7096 96.8166 89.0764 95.4774 89.0764 93.8181C89.0764 89.899 92.6534 88.116 95.9757 88.116C98.7559 88.116 102.671 89.7644 102.671 93.4215C102.671 96.8821 99.4582 98.8834 98.4757 99.4147L98.0572 99.6403L102.282 104.52L103.898 102.57C104.796 101.489 105.32 101.034 106.248 101.034C106.994 101.034 107.791 101.704 107.791 102.937C107.791 103.861 106.874 105.066 105.975 106.121L104.895 107.34L107.464 110.39C107.94 110.957 108.137 111.259 108.137 111.947C108.141 113.021 107.158 113.992 106.081 113.992V113.992ZM93.5377 101.351C91.9802 102.395 90.3937 103.77 90.3937 106.048C90.3937 108.436 91.9475 109.975 94.3564 109.975C96.3651 109.975 97.6642 109.094 98.996 107.77L99.2544 107.519L93.796 101.176L93.5377 101.351V101.351ZM95.9794 91.4856C94.9605 91.4856 93.5413 92.3189 93.5413 93.6762C93.5413 94.9425 94.1636 95.714 95.4845 97.0567L95.6701 97.2459L95.8993 97.1259C97.7079 96.1797 98.6249 95.1136 98.6249 93.9637C98.6285 92.2607 97.2566 91.4856 95.9794 91.4856V91.4856Z" fill="white"/>
</svg>