<svg xmlns="http://www.w3.org/2000/svg" viewBox="0 0 277 277" fill="none">
<path d="M204.639 127.215C189.472 114.604 183.945 98.2343 188.123 78.4408C169.951 86.3261 153.926 85.0464 141.285 74.5349C138.954 72.5962 138.635 69.1307 140.574 66.7992C142.512 64.4678 145.978 64.149 148.309 66.0876C159.835 75.6719 175.308 74.5568 194.292 62.7743C196.307 61.528 198.882 61.7046 200.703 63.2183C202.523 64.732 203.166 67.2315 202.309 69.4401C193.96 90.8381 196.931 106.518 211.663 118.768C213.999 120.71 214.314 124.172 212.375 126.504C210.436 128.835 206.975 129.157 204.639 127.215Z" fill="#292F33"/>
<path d="M154.663 90.3297C157.049 116.361 135.855 117.226 109.821 119.617C83.7901 122.012 62.7862 125.028 60.3882 99.0019C57.993 72.9637 77.1546 49.9196 103.189 47.5286C129.227 45.1334 152.267 64.2915 154.663 90.3297V90.3297Z" fill="#FFAC33"/>
<path d="M153.543 98.8152C154.667 111.073 135.324 122.857 110.33 125.156C85.336 127.455 64.1641 119.402 63.0397 107.137C61.9125 94.8834 81.2592 83.0949 106.249 80.7922C131.243 78.5008 152.416 86.5619 153.543 98.8152V98.8152Z" fill="#BE1931"/>
<path d="M182.446 113.432C156.42 115.838 159.432 136.83 161.83 162.864C164.225 188.895 165.091 210.096 191.118 207.706C217.152 205.307 236.313 182.263 233.919 156.233C231.528 130.198 208.488 111.04 182.446 113.432V113.432Z" fill="#FFAC33"/>
<path d="M174.311 116.084C162.05 117.212 153.992 138.38 156.291 163.374C158.586 188.364 170.376 207.719 182.636 206.583C194.889 205.456 202.95 184.283 200.651 159.289C198.353 134.303 186.56 114.953 174.311 116.084V116.084Z" fill="#BE1931"/>
<path d="M157.093 153.553C158.495 153.576 159.888 154.134 160.948 155.223C164.279 158.664 166.306 162.507 166.789 166.317C167.301 170.35 166.043 174.147 163.35 176.759C158.622 181.336 149.733 181.76 141.894 173.67C138.843 170.526 136.456 170.363 135.981 170.832C135.497 171.294 135.584 173.688 138.632 176.837C141.963 180.279 143.99 184.121 144.473 187.931C144.985 191.964 143.735 195.768 141.034 198.373C136.303 202.954 127.417 203.374 119.583 195.295C117.359 193.003 115.653 192.435 114.838 192.307C114.181 192.211 113.794 192.325 113.658 192.454C113.186 192.919 113.256 195.3 116.312 198.455C118.42 200.636 118.37 204.117 116.188 206.225C114.011 208.336 110.539 208.285 108.419 206.101C100.584 198.022 101.277 189.147 106.012 184.561C110.743 179.979 119.629 179.56 127.468 187.65C129.688 189.946 131.39 190.503 132.205 190.631C132.862 190.735 133.249 190.621 133.381 190.488C133.865 190.026 133.786 187.638 130.73 184.483C122.9 176.4 123.589 167.529 128.324 162.943C133.055 158.362 141.944 157.938 149.768 166.03C151.992 168.321 153.701 168.886 154.517 169.014C155.169 169.113 155.557 169 155.693 168.87C156.169 168.401 156.09 166.014 153.042 162.865C150.931 160.688 150.985 157.204 153.166 155.096C154.271 154.042 155.687 153.534 157.093 153.553V153.553Z" fill="#AA8DD8"/>
<path d="M65.0828 202.828C54.7934 198.251 52.1321 189.759 54.82 183.742C57.5045 177.731 65.6005 174.025 75.8787 178.607C79.8895 180.399 82.1576 179.656 82.4375 179.053C82.7119 178.431 81.7382 176.242 77.7359 174.457C67.4542 169.88 64.7965 161.383 67.4844 155.367C70.1639 149.344 78.2614 145.654 88.5438 150.239C92.5538 152.024 94.8296 151.28 95.0969 150.666C95.365 150.06 94.4026 147.867 90.396 146.079C87.6342 144.847 86.376 141.6 87.6116 138.834C88.8584 136.063 92.0986 134.821 94.8724 136.056C105.146 140.634 107.819 149.122 105.132 155.153C102.448 161.165 94.3547 164.858 84.0653 160.282C80.0545 158.49 77.7864 159.233 77.5191 159.846C77.2434 160.453 78.2057 162.646 82.2081 164.431C92.4982 169.016 95.1587 177.5 92.468 183.528C89.7913 189.54 81.6981 193.233 71.4044 188.653C67.4056 186.864 65.127 187.619 64.8583 188.217C64.5875 188.835 65.5491 191.021 69.5522 192.813C72.3294 194.044 73.5679 197.289 72.3366 200.058C71.101 202.824 67.8495 204.071 65.0828 202.828V202.828Z" fill="#77B255"/>
<path d="M35.1438 129.155C38.6428 132.064 43.8378 131.587 46.7473 128.088C49.6568 124.589 49.1789 119.394 45.6799 116.484C42.181 113.575 36.9859 114.053 34.0764 117.551C31.167 121.05 31.6449 126.246 35.1438 129.155Z" fill="#5C913B"/>
<path d="M40.1019 161.854C44.7672 165.733 51.6939 165.096 55.5732 160.43C59.4525 155.765 58.8153 148.838 54.15 144.959C49.4847 141.08 42.558 141.717 38.6787 146.382C34.7994 151.048 35.4366 157.974 40.1019 161.854Z" fill="#9266CC"/>
<path d="M151.293 225.736C155.959 229.615 162.885 228.978 166.765 224.312C170.644 219.647 170.007 212.72 165.342 208.841C160.676 204.962 153.75 205.599 149.87 210.264C145.991 214.93 146.628 221.856 151.293 225.736Z" fill="#9266CC"/>
<path d="M118.239 226.826C121.738 229.736 126.933 229.258 129.842 225.759C132.752 222.26 132.274 217.065 128.775 214.155C125.276 211.246 120.081 211.724 117.172 215.223C114.262 218.722 114.74 223.917 118.239 226.826Z" fill="#5C913B"/>
<path d="M126.594 148.047C130.093 150.956 135.288 150.478 138.198 146.979C141.107 143.48 140.629 138.285 137.13 135.376C133.631 132.466 128.436 132.944 125.527 136.443C122.617 139.942 123.095 145.137 126.594 148.047Z" fill="#5C913B"/>
<path d="M68.1981 128.065C72.8634 131.944 79.7901 131.307 83.6694 126.641C87.5487 121.976 86.9115 115.049 82.2462 111.17C77.5809 107.291 70.6542 107.928 66.7749 112.593C62.8956 117.259 63.5328 124.185 68.1981 128.065Z" fill="#FFCC4D"/>
<path d="M179.366 170.496C182.865 173.405 188.061 172.927 190.97 169.428C193.879 165.929 193.402 160.734 189.903 157.825C186.404 154.915 181.209 155.393 178.299 158.892C175.39 162.391 175.868 167.586 179.366 170.496Z" fill="#FFCC4D"/>
<path d="M123.036 109.368C126.535 112.278 131.73 111.8 134.64 108.301C137.549 104.802 137.071 99.6067 133.572 96.6972C130.074 93.7878 124.878 94.2657 121.969 97.7646C119.06 101.264 119.537 106.459 123.036 109.368Z" fill="#FFCC4D"/>
</svg>