<svg xmlns="http://www.w3.org/2000/svg" viewBox="0 0 91 91" fill="none">
<path d="M56.5473 79.613C75.4499 73.4492 85.7769 53.1288 79.6131 34.2262C73.4494 15.3235 53.129 4.99657 34.2263 11.1603C15.3236 17.3241 4.99671 37.6444 11.1605 56.5471C17.3242 75.4498 37.6446 85.7767 56.5473 79.613Z" fill="#AA8DD8"/>
<path d="M21.4947 23.7265C16.589 25.3261 9.25862 22.5288 6.85494 21.3184C5.41455 20.5848 3.66947 20.7941 2.44318 21.8461C1.21248 22.8974 0.738467 24.5855 1.24007 26.1238C3.38474 32.701 10.6196 44.1017 22.652 40.1782C24.0914 39.7089 25.1438 38.4654 25.368 36.966L26.6908 28.1201C26.8958 26.749 26.3768 25.3699 25.3169 24.4744C24.2596 23.5801 22.8125 23.2968 21.4947 23.7265ZM66.2011 1.05597C64.5822 0.929637 63.0593 1.78805 62.325 3.23286C61.189 5.465 56.841 12.2008 51.9181 13.806C50.6004 14.2357 49.5985 15.3176 49.2722 16.6652C48.9452 18.0108 49.3394 19.4327 50.3114 20.42L56.5944 26.7858C57.6588 27.8629 59.24 28.2477 60.6813 27.7777C72.7137 23.8542 71.8374 10.38 69.6927 3.80286C69.1911 2.26458 67.8131 1.18036 66.2011 1.05597V1.05597Z" fill="#AA8DD8"/>
<path d="M67.8671 54.1051C67.4288 53.9093 66.9168 54.0552 66.6417 54.4436C66.5855 54.523 60.9822 62.3896 51.8971 65.3521C42.8347 68.3072 33.6465 65.2637 33.5563 65.2321C33.105 65.0805 32.6067 65.2683 32.3668 65.681C32.1295 66.0949 32.2171 66.6217 32.5774 66.9334C32.956 67.2622 41.9453 74.9081 53.7571 71.0565C65.569 67.2049 68.3251 55.7291 68.4352 55.2409C68.542 54.7748 68.3048 54.2989 67.8671 54.1051V54.1051ZM41.2084 47.3656C33.0009 43.1945 23.0308 46.3656 22.6106 46.5027C21.561 46.8449 20.9882 47.972 21.3298 49.0197C21.6702 50.07 22.7985 50.6466 23.8488 50.3062C23.9039 50.2882 27.5227 49.1545 31.8793 49.238C31.1485 50.8226 31.0251 52.9539 31.7251 55.1006C32.9243 58.7781 36.023 61.0619 38.6489 60.2057C41.2748 59.3494 42.4316 55.6779 41.2325 52.0005C41.1246 51.6696 40.9855 51.3658 40.8478 51.0594C40.8725 51.0513 40.8996 51.0572 40.9224 51.0498C41.4092 50.891 41.8352 50.546 42.0851 50.0543C42.5862 49.0684 42.1943 47.8666 41.2084 47.3656V47.3656ZM64.4428 32.8621C64.0226 32.9991 54.1015 36.3141 49.9285 44.5222C49.4275 45.5081 49.8193 46.7098 50.8052 47.2108C51.2969 47.4607 51.8444 47.4883 52.3312 47.3296C52.3559 47.3215 52.3725 47.3014 52.3953 47.294C52.4684 47.6214 52.5333 47.9495 52.6412 48.2803C53.8404 51.9578 56.9391 54.2416 59.565 53.3854C62.1909 52.5291 63.3477 48.8576 62.1485 45.1802C61.4485 43.0335 60.0926 41.3846 58.5682 40.5353C62.0381 37.8998 65.6296 36.6824 65.6866 36.6638C66.7337 36.3202 67.3053 35.1893 66.9611 34.1403C66.6176 33.0933 65.4924 32.5198 64.4428 32.8621V32.8621Z" fill="#553986"/>
</svg>