<svg xmlns="http://www.w3.org/2000/svg" viewBox="0 0 131 136" fill="none">
<path d="M17.0821 39.957C25.5731 36.9947 33.2086 40.6805 45.6493 49.0395C58.09 57.3985 75.2708 61.5353 87.5126 59.8328C102.652 57.726 117.923 65.0976 123.847 82.0795C128.683 95.9396 119.874 105.689 105.286 110.779C91.1348 115.716 76.8512 111.175 57.7624 101.96C38.6737 92.7457 15.6352 72.21 11.6854 60.8887C7.7357 49.5674 8.59115 42.9193 17.0821 39.957Z" fill="#744EAA"/>
<path d="M6.09908 31.0895C9.63132 29.8571 10.8636 33.3894 12.095 36.9188C13.8368 41.9115 16.742 38.8819 20.2743 37.6496C23.8008 36.4193 33.2086 40.6805 33.2086 40.6805L22.6176 44.3754C19.0853 45.6077 25.1987 51.7739 21.6665 53.0062C18.1342 54.2385 16.9612 50.8761 13.4318 52.1074C9.90234 53.3388 12.6729 63.719 12.6729 63.719C12.6729 63.719 4.03226 53.5485 7.4803 46.4055C9.78023 41.6409 -0.962573 33.5531 6.09908 31.0895Z" fill="#77B255"/>
</svg>