<svg xmlns="http://www.w3.org/2000/svg" viewBox="0 0 141 134" fill="none">
<path d="M140.91 61.6511C139.927 79.6239 108.713 94.0602 70.272 94.0602C57.3642 94.0602 45.313 92.402 34.9081 89.5611V103.66C45.3208 107.679 57.376 110.021 70.272 110.021C109.333 110.021 141 88.9089 141 62.8692C141 62.4605 140.921 62.0558 140.91 61.6511V61.6511ZM105.636 22.0749C95.239 18.0513 83.172 15.7212 70.272 15.7212C34.8374 15.7212 5.57566 33.1124 0.432175 55.7768C5.57566 39.7805 34.8374 27.5052 70.272 27.5052C83.172 27.5052 95.239 29.1477 105.636 31.9925V22.0749Z" fill="#F4ABBA"/>
<path d="M96.8737 73.6081C96.8737 58.8456 84.9089 46.8847 70.1503 46.8847C61.1914 46.8847 53.2856 51.3052 48.4368 58.0637C43.588 51.3052 35.6783 46.8847 26.7234 46.8847C11.9648 46.8847 0 58.8456 0 73.6081C0 75.6946 0.263265 77.73 0.719067 79.6789C4.43228 102.732 30.0633 127.063 48.4368 133.739C66.8064 127.063 92.4453 102.732 96.1467 79.6868C96.6065 77.73 96.8737 75.6946 96.8737 73.6081ZM140.548 18.5111C140.548 8.28695 132.261 0 122.037 0C115.833 0 110.355 3.06488 106.996 7.74863C103.636 3.06881 98.1585 0 91.9581 0C81.734 0 73.447 8.28695 73.447 18.5111C73.447 19.961 73.6317 21.3677 73.946 22.7154C76.5158 38.6842 94.2724 55.5371 106.996 60.158C119.719 55.5332 137.479 38.6842 140.049 22.7194C140.363 21.3677 140.548 19.961 140.548 18.5111V18.5111Z" fill="#DD2E44"/>
</svg>