<svg xmlns="http://www.w3.org/2000/svg" viewBox="0 0 72 72" fill="none">
<path d="M36 72C55.8823 72 72 55.8823 72 36C72 16.1177 55.8823 0 36 0C16.1177 0 0 16.1177 0 36C0 55.8823 16.1177 72 36 72Z" fill="#FFCC4D"/>
<path d="M32 33.9161C31.162 33.9161 30.382 33.3861 30.102 32.5481C29.696 31.3501 28.066 27.9161 26 27.9161C23.876 27.9161 22.224 31.5701 21.898 32.5481C21.548 33.5941 20.422 34.1641 19.368 33.8121C18.32 33.4641 17.754 32.3301 18.104 31.2821C18.354 30.5281 20.712 23.9141 26.002 23.9141C31.292 23.9141 33.648 30.5281 33.9 31.2821C34.25 32.3301 33.684 33.4641 32.636 33.8121C32.424 33.8841 32.21 33.9161 32 33.9161V33.9161ZM52 33.9161C51.162 33.9161 50.382 33.3861 50.104 32.5481C49.698 31.3501 48.066 27.9161 46 27.9161C43.876 27.9161 42.222 31.5701 41.896 32.5481C41.546 33.5941 40.424 34.1641 39.366 33.8121C38.32 33.4641 37.752 32.3301 38.102 31.2821C38.352 30.5281 40.71 23.9141 45.998 23.9141C51.286 23.9141 53.644 30.5281 53.894 31.2821C54.244 32.3301 53.678 33.4641 52.63 33.8121C52.422 33.8841 52.21 33.9161 52 33.9161V33.9161ZM54.67 41.3821C54.314 41.0601 53.782 41.0401 53.4 41.3241C53.322 41.3821 45.556 47.1241 36 47.1241C26.468 47.1241 18.676 41.3821 18.6 41.3241C18.218 41.0401 17.686 41.0641 17.33 41.3821C16.976 41.7021 16.896 42.2301 17.142 42.6381C17.4 43.0681 23.576 53.1241 36 53.1241C48.424 53.1241 54.602 43.0681 54.858 42.6381C55.104 42.2281 55.026 41.7041 54.67 41.3821V41.3821Z" fill="#664500"/>
<path d="M42.458 7.89393C42.458 8.37393 42.518 8.83793 42.622 9.28593C43.472 14.5719 49.35 20.1479 53.562 21.6799C56.892 20.4699 61.254 16.7279 63.358 12.6019C59.18 7.72193 53.72 3.97393 47.5 1.87793C44.636 2.39193 42.458 4.88193 42.458 7.89393ZM27.486 58.1559C27.6 57.6719 27.666 57.1679 27.666 56.6479C27.666 52.9819 24.694 50.0099 21.028 50.0099C18.802 50.0099 16.84 51.1079 15.634 52.7879C14.43 51.1099 12.466 50.0099 10.24 50.0099C7.75798 50.0099 5.61798 51.3879 4.47998 53.4059C8.12798 59.9959 13.78 65.3199 20.616 68.5539C23.89 65.8519 26.878 61.9399 27.486 58.1559V58.1559ZM68.602 51.2839C68.038 49.3839 66.298 47.9899 64.214 47.9899C62.672 47.9899 61.312 48.7499 60.478 49.9139C59.644 48.7499 58.284 47.9899 56.742 47.9899C54.202 47.9899 52.144 50.0479 52.144 52.5879C52.144 52.9479 52.19 53.2959 52.268 53.6319C52.882 57.4419 56.964 61.4239 60.086 62.7539C63.638 59.5539 66.548 55.6599 68.602 51.2839Z" fill="#FFAC33"/>
<path d="M67.25 6.53811C67.25 3.15411 64.506 0.412109 61.124 0.412109C59.07 0.412109 57.258 1.42611 56.146 2.97611C55.034 1.42611 53.222 0.412109 51.168 0.412109C47.784 0.412109 45.042 3.15411 45.042 6.53811C45.042 7.01811 45.102 7.48211 45.206 7.93011C46.058 13.2161 51.934 18.7921 56.146 20.3241C60.358 18.7921 66.234 13.2161 67.084 7.93211C67.19 7.48211 67.25 7.01811 67.25 6.53811V6.53811ZM24.416 56.8161C24.416 53.1501 21.444 50.1781 17.778 50.1781C15.552 50.1781 13.59 51.2761 12.384 52.9561C11.18 51.2761 9.21599 50.1781 6.98999 50.1781C3.32399 50.1781 0.35199 53.1501 0.35199 56.8161C0.35199 57.3361 0.41799 57.8381 0.52999 58.3241C1.45199 64.0501 7.81799 70.0921 12.382 71.7521C16.946 70.0941 23.312 64.0521 24.234 58.3261C24.35 57.8381 24.416 57.3341 24.416 56.8161V56.8161ZM71.896 52.2541C71.896 49.7141 69.838 47.6561 67.298 47.6561C65.756 47.6561 64.396 48.4161 63.562 49.5801C62.728 48.4161 61.368 47.6561 59.826 47.6561C57.286 47.6561 55.228 49.7141 55.228 52.2541C55.228 52.6141 55.274 52.9621 55.352 53.2981C55.99 57.2641 60.4 61.4501 63.562 62.5981C66.722 61.4501 71.134 57.2641 71.77 53.2981C71.85 52.9621 71.896 52.6141 71.896 52.2541V52.2541Z" fill="#DD2E44"/>
</svg>