<svg xmlns="http://www.w3.org/2000/svg" viewBox="0 0 81 81" fill="none">
<path d="M81 40.5C81 62.8672 62.8672 81 40.5 81C18.1328 81 0 62.8672 0 40.5C0 18.1328 18.1328 0 40.5 0C62.8672 0 81 18.1328 81 40.5Z" fill="#FFCC4D"/>
<path d="M40.5 49.1603C33.8265 49.1603 29.3963 48.3818 23.9198 47.3175C22.6665 47.079 20.2343 47.3175 20.2343 51.003C20.2343 58.3718 28.701 67.5833 40.5 67.5833C52.299 67.5833 60.7658 58.3718 60.7658 51.003C60.7658 47.3175 58.3313 47.0768 57.0803 47.3175C51.6038 48.3818 47.1758 49.1603 40.5 49.1603Z" fill="#664500"/>
<path d="M37.4625 7.38238C35.5298 1.91263 29.5335 -0.95837 24.0615 0.96988C20.7405 2.13988 18.3893 4.81963 17.4735 7.95388C14.7938 6.08863 11.2838 5.47888 7.96728 6.64888C2.49978 8.57938 -0.375717 14.5801 1.55703 20.0499C1.83153 20.8239 2.19603 21.5416 2.61903 22.2054C7.00878 30.2649 19.692 35.9304 27.3713 36.0001C33.3045 31.1244 39.6248 18.7539 37.9868 9.72688C37.9013 8.94388 37.7325 8.15638 37.4625 7.38238V7.38238ZM43.5375 7.38238C45.4703 1.91263 51.4688 -0.95837 56.9385 0.96988C60.2595 2.13988 62.6108 4.81963 63.5288 7.95388C66.2085 6.08863 69.7185 5.47888 73.035 6.64888C78.5025 8.57938 81.3758 14.5801 79.4475 20.0499C79.1708 20.8239 78.8085 21.5416 78.3833 22.2054C73.9935 30.2649 61.3103 35.9304 53.6288 36.0001C47.6955 31.1244 41.3775 18.7539 43.0155 9.72688C43.0988 8.94388 43.2675 8.15638 43.5375 7.38238V7.38238Z" fill="#DD2E44"/>
</svg>