<svg xmlns="http://www.w3.org/2000/svg" viewBox="0 0 236 68" fill="none">
<path d="M182.734 41.4253C186.412 40.4877 188.291 35.4028 186.931 30.0677C185.571 24.7326 181.487 21.1677 177.809 22.1052C174.131 23.0427 172.252 28.1277 173.612 33.4628C174.972 38.7979 179.056 42.3628 182.734 41.4253Z" fill="#D79E84"/>
<path d="M232.523 33.465C233.882 28.1299 232.003 23.045 228.325 22.1075C224.647 21.1699 220.563 24.7349 219.203 30.0699C217.843 35.405 219.723 40.49 223.401 41.4275C227.079 42.365 231.163 38.8001 232.523 33.465Z" fill="#D79E84"/>
<path d="M204.907 65.4002H201.226C189.08 65.4002 177.302 56.0909 177.302 43.0593C177.302 35.613 180.062 31.8889 180.062 31.8889C180.062 31.8889 179.143 28.1648 179.143 24.4426C179.143 13.2722 190.921 3.96289 203.067 3.96289C215.212 3.96289 226.99 15.1333 226.99 24.4426C226.99 28.1667 226.071 31.8889 226.071 31.8889C226.071 31.8889 228.831 35.613 228.831 43.0593C228.831 56.0909 217.053 65.4002 204.907 65.4002Z" fill="#BF6952"/>
<path d="M210.993 0.317331C210.993 0.317331 201.084 -1.66524 197.121 4.2806C193.157 10.2264 205.047 6.26318 205.047 6.26318C205.047 6.26318 207.03 0.317331 210.993 0.317331Z" fill="#BF6952"/>
<path d="M224.867 28.7365C224.867 21.6228 219.099 15.8545 211.985 15.8545C208.521 15.8545 205.382 17.2298 203.066 19.4534C200.751 17.2279 197.612 15.8545 194.148 15.8545C187.034 15.8545 181.266 21.6228 181.266 28.7365C181.266 33.0511 183.396 36.8612 186.651 39.1988C185.737 41.4635 185.229 43.9562 185.229 46.5722C185.229 56.9709 193.215 63.4175 203.065 63.4175C212.914 63.4175 220.9 56.9709 220.9 46.5722C220.9 43.9543 220.392 41.4635 219.478 39.1988C222.737 36.8612 224.867 33.0511 224.867 28.7365V28.7365Z" fill="#D79E84"/>
<path d="M193.724 37.3712C195.788 37.3712 197.461 34.8614 197.461 31.7654C197.461 28.6695 195.788 26.1597 193.724 26.1597C191.66 26.1597 189.986 28.6695 189.986 31.7654C189.986 34.8614 191.66 37.3712 193.724 37.3712Z" fill="#292F33"/>
<path d="M212.409 37.3712C214.473 37.3712 216.147 34.8614 216.147 31.7654C216.147 28.6695 214.473 26.1597 212.409 26.1597C210.345 26.1597 208.672 28.6695 208.672 31.7654C208.672 34.8614 210.345 37.3712 212.409 37.3712Z" fill="#292F33"/>
<path d="M203.066 58.86C208.14 58.86 212.46 56.2814 214.082 52.6769C214.753 51.1857 213.615 49.5171 211.92 49.5171H194.213C192.518 49.5171 191.38 51.1857 192.051 52.6769C193.673 56.2814 197.993 58.86 203.066 58.86Z" fill="#642116"/>
<path d="M200.264 43.0909C201.296 43.0909 202.132 42.2032 202.132 41.1083C202.132 40.0134 201.296 39.1257 200.264 39.1257C199.232 39.1257 198.395 40.0134 198.395 41.1083C198.395 42.2032 199.232 43.0909 200.264 43.0909Z" fill="#642116"/>
<path d="M205.869 42.9769C206.901 42.9769 207.738 42.1403 207.738 41.1083C207.738 40.0763 206.901 39.2397 205.869 39.2397C204.837 39.2397 204.001 40.0763 204.001 41.1083C204.001 42.1403 204.837 42.9769 205.869 42.9769Z" fill="#642116"/>
<path d="M182.277 43.4349C183.394 41.0188 183.913 39.0942 183.913 37.3713C183.913 34.9272 182.785 32.5877 181.877 30.7079C181.365 29.6466 180.836 28.5479 180.836 28.0284C180.836 27.6677 181.101 26.5466 181.335 25.5562C182.058 22.4992 182.957 18.6929 181.826 16.8692C181.546 16.4189 181.015 15.8826 180.066 15.8826C176.42 15.8826 170.833 23.8353 170.833 33.6341C170.833 38.4476 171.158 41.4392 171.87 43.1864L170.366 67.2687H183.446L181.882 44.0216C182.041 43.8478 182.176 43.6535 182.277 43.4349V43.4349Z" fill="#BF6952"/>
<path d="M182.277 43.4351C183.394 41.019 183.913 39.0944 183.913 37.3715C183.913 34.9274 182.785 32.588 181.877 30.7082C181.365 29.6468 180.836 28.5481 180.836 28.0286C180.836 27.668 181.101 26.5468 181.335 25.5565C182.058 22.4995 182.957 18.6931 181.826 16.8694C181.707 16.6788 181.531 16.4789 181.309 16.3032C179.937 18.809 179.143 21.5614 179.143 24.4428C179.143 28.165 178.775 35.6132 178.775 43.0595C178.775 43.6481 182.512 67.2689 182.512 67.2689H183.446L181.879 43.9695C182.026 43.8032 182.181 43.6425 182.277 43.4351V43.4351Z" fill="#9B3C07"/>
<path d="M180.066 17.751C177.5 17.751 172.371 24.618 172.371 33.634C172.371 38.3839 172.717 41.4334 173.399 42.6985C173.875 43.5861 175.239 43.5767 176.553 43.5636L176.987 43.5618C179.154 43.5618 180.696 43.033 180.933 42.5191C181.903 40.4244 182.374 38.7389 182.374 37.3711C182.374 35.4353 181.404 33.4247 180.548 31.6514C179.849 30.2014 179.296 29.0559 179.296 28.0282C179.296 27.434 179.498 26.5502 179.855 25.0403C180.348 22.955 181.266 19.0721 180.595 17.9939C180.552 17.921 180.445 17.751 180.066 17.751V17.751Z" fill="#D79E84"/>
<path d="M235.767 67.2687L234.263 43.1864C234.975 41.4392 235.3 38.4495 235.3 33.6341C235.3 23.8353 229.713 15.8826 226.067 15.8826C225.118 15.8826 224.587 16.4189 224.307 16.8692C223.174 18.6929 224.075 22.4992 224.798 25.5562C225.032 26.5466 225.297 27.6677 225.297 28.0284C225.297 28.5479 224.768 29.6466 224.256 30.7079C223.348 32.5877 222.22 34.9291 222.22 37.3713C222.22 39.0942 222.739 41.0188 223.858 43.4349C223.959 43.6535 224.094 43.8478 224.253 44.0216L222.687 67.2687H235.767Z" fill="#BF6952"/>
<path d="M227.358 43.0597C227.358 35.6134 226.99 28.1652 226.99 24.443C226.99 21.8755 226.069 19.1698 224.516 16.593C224.438 16.6864 224.363 16.7799 224.307 16.8696C223.174 18.6933 224.075 22.4996 224.798 25.5566C225.032 26.547 225.297 27.6681 225.297 28.0288C225.297 28.5482 224.768 29.647 224.256 30.7083C223.348 32.5881 222.22 34.9295 222.22 37.3717C222.22 39.0945 222.739 41.0192 223.858 43.4353C223.954 43.6408 224.109 43.8034 224.256 43.9697L222.687 67.2691H223.621C223.621 67.2691 227.358 43.6483 227.358 43.0597Z" fill="#9B3C07"/>
<path d="M226.067 17.751C225.688 17.751 225.581 17.921 225.536 17.9939C224.867 19.0721 225.785 22.955 226.276 25.0403C226.633 26.5502 226.835 27.434 226.835 28.0282C226.835 29.0559 226.282 30.2014 225.583 31.6514C224.727 33.4247 223.757 35.4353 223.757 37.3711C223.757 38.7389 224.228 40.4244 225.196 42.5191C225.434 43.0311 226.973 43.5618 229.143 43.5618L229.576 43.5636C230.888 43.5767 232.252 43.5861 232.732 42.6985C233.414 41.4353 233.76 38.3858 233.76 33.634C233.76 24.618 228.633 17.751 226.067 17.751V17.751Z" fill="#D79E84"/>
<path d="M13.3023 42.1565C16.9804 41.2189 18.8596 36.134 17.4997 30.7989C16.1398 25.4638 12.0558 21.8989 8.37771 22.8364C4.69965 23.7739 2.8204 28.8589 4.1803 34.194C5.5402 39.5291 9.62427 43.094 13.3023 42.1565Z" fill="#D79E84"/>
<path d="M63.091 34.1962C64.4509 28.8611 62.5717 23.7762 58.8936 22.8387C55.2156 21.9011 51.1315 25.4661 49.7716 30.8012C48.4117 36.1362 50.291 41.2212 53.969 42.1587C57.6471 43.0962 61.7311 39.5313 63.091 34.1962Z" fill="#D79E84"/>
<path d="M35.4755 66.1314H31.7944C19.6486 66.1314 7.87091 56.8221 7.87091 43.7905C7.87091 36.3442 10.6308 32.6201 10.6308 32.6201C10.6308 32.6201 9.71147 28.896 9.71147 25.1738C9.71147 14.0034 21.4892 4.69409 33.635 4.69409C45.7808 4.69409 57.5585 15.8645 57.5585 25.1738C57.5585 28.8979 56.6392 32.6201 56.6392 32.6201C56.6392 32.6201 59.3991 36.3442 59.3991 43.7905C59.3991 56.8221 47.6214 66.1314 35.4755 66.1314Z" fill="#BF6952"/>
<path d="M55.4357 29.4677C55.4357 22.354 49.6674 16.5857 42.5537 16.5857C39.0893 16.5857 35.9501 17.961 33.6349 20.1846C31.3198 17.9591 28.1805 16.5857 24.7162 16.5857C17.6025 16.5857 11.8341 22.354 11.8341 29.4677C11.8341 33.7823 13.9643 37.5924 17.2194 39.93C16.3057 42.1947 15.7974 44.6874 15.7974 47.3034C15.7974 57.7021 23.7838 64.1487 33.6331 64.1487C43.4824 64.1487 51.4687 57.7021 51.4687 47.3034C51.4687 44.6855 50.9605 42.1947 50.0467 39.93C53.3056 37.5924 55.4357 33.7823 55.4357 29.4677V29.4677Z" fill="#D79E84"/>
<path d="M24.292 38.1024C26.356 38.1024 28.0292 35.5926 28.0292 32.4966C28.0292 29.4007 26.356 26.8909 24.292 26.8909C22.228 26.8909 20.5548 29.4007 20.5548 32.4966C20.5548 35.5926 22.228 38.1024 24.292 38.1024Z" fill="#292F33"/>
<path d="M42.9779 38.1024C45.0419 38.1024 46.7151 35.5926 46.7151 32.4966C46.7151 29.4007 45.0419 26.8909 42.9779 26.8909C40.9139 26.8909 39.2407 29.4007 39.2407 32.4966C39.2407 35.5926 40.9139 38.1024 42.9779 38.1024Z" fill="#292F33"/>
<path d="M33.635 59.5912C38.7082 59.5912 43.0284 57.0126 44.6503 53.4081C45.3211 51.9169 44.1832 50.2483 42.4883 50.2483H24.7816C23.0868 50.2483 21.9488 51.9169 22.6197 53.4081C24.2416 57.0126 28.5618 59.5912 33.635 59.5912Z" fill="#642116"/>
<path d="M30.8321 43.8221C31.8641 43.8221 32.7007 42.9344 32.7007 41.8395C32.7007 40.7446 31.8641 39.8569 30.8321 39.8569C29.8002 39.8569 28.9636 40.7446 28.9636 41.8395C28.9636 42.9344 29.8002 43.8221 30.8321 43.8221Z" fill="#642116"/>
<path d="M36.4378 43.7081C37.4698 43.7081 38.3064 42.8715 38.3064 41.8395C38.3064 40.8075 37.4698 39.9709 36.4378 39.9709C35.4058 39.9709 34.5692 40.8075 34.5692 41.8395C34.5692 42.8715 35.4058 43.7081 36.4378 43.7081Z" fill="#642116"/>
<path d="M41.5611 1.04853C41.5611 1.04853 31.652 -0.934039 27.6887 5.01181C23.7254 10.9577 35.6153 6.99438 35.6153 6.99438C35.6153 6.99438 37.5978 1.04853 41.5611 1.04853ZM67.2691 68L41.1089 60.5257L46.7147 49.3141L67.2691 53.0513V68ZM0 68L26.1602 60.5257L20.5545 49.3141L0 53.0513V68Z" fill="#BF6952"/>
<path d="M23.113 47.4474C23.113 47.4474 23.3335 45.0929 23.2886 42.3667C23.2307 38.8051 18.464 37.0375 16.9822 40.3822C15.1715 44.4707 12.8937 54.2808 14.2372 58.4253C15.5807 62.5698 18.9666 65.8417 26.5587 65.6082C34.1507 65.3746 40.7487 63.9152 42.793 62.6296C44.8372 61.344 44.3719 58.1861 42.0343 57.6667C39.9322 57.1995 34.1507 58.1338 34.1507 58.1338C34.1507 58.1338 40.2293 56.837 41.9166 55.7401C44.2523 54.2229 42.9667 50.893 40.6908 50.8351C38.4448 50.7772 32.8652 51.7115 32.8652 51.7115C32.8652 51.7115 38.1794 50.31 39.8724 48.8507C41.5447 47.41 40.9225 44.2371 37.9458 44.1213C34.9692 44.0054 25.9159 45.9282 23.113 47.4474V47.4474Z" fill="#D79E84"/>
<path d="M25.7981 66.5554C19.2207 66.5554 15.0351 63.9189 13.3496 58.7149C11.8435 54.0677 14.396 43.9175 16.1282 40.0047C16.9092 38.237 18.5573 37.3681 20.4203 37.753C22.2796 38.1286 24.1818 39.829 24.2229 42.3535C24.2453 43.7437 24.2023 45.0293 24.1519 45.973C27.9937 44.5267 35.2999 43.0598 37.9813 43.1869C39.6836 43.2542 41.0047 44.1623 41.5129 45.6198C42.0044 47.0212 41.5895 48.6058 40.4815 49.5588C40.3451 49.6746 40.19 49.7924 40.0199 49.9082C40.2722 49.9007 40.5076 49.8989 40.7132 49.9026C42.2137 49.9418 43.5123 51.0032 43.9477 52.5448C44.3868 54.1032 43.8038 55.6279 42.4248 56.5249C42.322 56.5921 42.208 56.6575 42.0791 56.7248L42.2342 56.7566C43.6674 57.0761 44.712 58.1823 44.9661 59.6454C45.2239 61.1384 44.5643 62.6221 43.2881 63.4218C41.1747 64.7523 34.6029 66.2976 26.5867 66.5442C26.3195 66.5498 26.056 66.5554 25.7981 66.5554V66.5554ZM19.5981 39.5375C19.0488 39.5375 18.2845 39.745 17.8361 40.7596C15.9413 45.0387 13.9251 54.4264 15.1266 58.1375C16.614 62.7267 20.3474 64.8943 26.5306 64.6738C33.8405 64.4495 40.403 63.0276 42.2959 61.8391C43.062 61.3552 43.2283 60.5517 43.1255 59.9593C43.0022 59.2474 42.5182 58.7317 41.8306 58.5784C40.246 58.2272 35.8586 58.8045 34.2983 59.0549C33.8013 59.1484 33.3248 58.8045 33.2314 58.3056C33.1379 57.8067 33.4593 57.3265 33.9545 57.22C35.5989 56.8687 40.1433 55.7793 41.4064 54.9571C42.3837 54.3218 42.251 53.4118 42.1483 53.0493C41.9782 52.4476 41.4419 51.788 40.6646 51.7674C38.4709 51.6759 33.0725 52.6214 33.0183 52.6307C32.5213 52.7167 32.056 52.3934 31.9514 51.9057C31.8467 51.4162 32.1438 50.9322 32.6259 50.8051C34.0461 50.4295 38.0075 49.2187 39.2613 48.1387C39.7901 47.6827 39.9882 46.9147 39.749 46.2308C39.6014 45.8104 39.166 45.1003 37.9084 45.0499C35.1952 44.9378 26.2391 46.8138 23.5577 48.2657C23.2512 48.4283 22.8831 48.4152 22.5972 48.2246C22.3095 48.034 22.1488 47.7033 22.1805 47.3576C22.1824 47.3352 22.3954 45.02 22.3524 42.3797C22.3282 40.8456 21.1734 39.8085 20.0466 39.5805C19.9326 39.5581 19.7775 39.5375 19.5981 39.5375V39.5375Z" fill="#BF6952"/>
<path d="M44.1569 47.4474C44.1569 47.4474 43.9364 45.0929 43.9813 42.3667C44.0392 38.8051 48.806 37.0375 50.2878 40.3822C52.0984 44.4707 54.3762 54.2808 53.0327 58.4253C51.6892 62.5698 48.3033 65.8417 40.7113 65.6082C33.1192 65.3746 26.5212 63.9152 24.477 62.6296C22.4327 61.344 22.898 58.1861 25.2356 57.6667C27.3378 57.1995 33.1192 58.1338 33.1192 58.1338C33.1192 58.1338 27.0407 56.837 25.3533 55.7401C23.0176 54.2229 24.3032 50.893 26.5791 50.8351C28.8252 50.7772 34.4048 51.7115 34.4048 51.7115C34.4048 51.7115 29.0905 50.31 27.3976 48.8507C25.7252 47.41 26.3474 44.2371 29.3241 44.1213C32.3008 44.0054 41.3541 45.9282 44.1569 47.4474V47.4474Z" fill="#D79E84"/>
<path d="M41.4718 66.5554C41.2121 66.5554 40.9505 66.5498 40.6814 66.5423C32.6652 66.2956 26.0934 64.7503 23.98 63.4199C22.7038 62.6182 22.0441 61.1346 22.3039 59.6435C22.5561 58.1804 23.6025 57.0742 25.0339 56.7546L25.189 56.7229C25.0638 56.6556 24.9479 56.5902 24.8452 56.5229C23.4643 55.6279 22.8813 54.1012 23.3223 52.5428C23.7576 51.0012 25.0582 49.938 26.5568 49.9006C26.7642 49.8969 26.9978 49.8988 27.25 49.9062C27.08 49.7904 26.9249 49.6745 26.7866 49.5568C25.6804 48.602 25.2656 47.0193 25.7552 45.6178C26.2634 44.1622 27.5845 43.2522 29.2868 43.1849C31.9645 43.0934 39.2763 44.5266 43.1162 45.971C43.0676 45.0274 43.0228 43.7437 43.0452 42.3516C43.0863 39.829 44.9885 38.1267 46.8459 37.7511C48.722 37.3662 50.357 38.2351 51.1399 40.0027C52.874 43.9156 55.4246 54.0639 53.9185 58.7129C52.2349 63.9169 48.0493 66.5535 41.4718 66.5554V66.5554ZM26.852 58.4662C26.284 58.4662 25.7925 58.4999 25.4412 58.5784C24.7536 58.7316 24.2696 59.2473 24.1463 59.9592C24.0435 60.5497 24.208 61.3551 24.976 61.839C26.867 63.0275 33.4313 64.4476 40.7412 64.6737C46.9076 64.8624 50.6597 62.7266 52.1452 58.1374C53.3486 54.4282 51.3286 45.0386 49.4358 40.7595C48.8397 39.4141 47.6924 39.487 47.2215 39.5823C46.0947 39.8103 44.9418 40.8473 44.9175 42.3815C44.8764 45.0218 45.0876 47.3369 45.0894 47.3612C45.1212 47.7051 44.9624 48.0358 44.6727 48.2264C44.385 48.4189 44.0131 48.4319 43.7123 48.2675C41.0309 46.8175 32.1513 44.9302 29.3615 45.0517C28.1021 45.1002 27.6667 45.8122 27.521 46.2326C27.2837 46.9146 27.478 47.6826 28.0087 48.1404C29.2625 49.2223 33.2239 50.4332 34.644 50.8069C35.1261 50.934 35.4232 51.4179 35.3186 51.9075C35.2121 52.3952 34.7356 52.711 34.2498 52.6325C34.1937 52.6232 28.715 51.7113 26.6035 51.7692C25.8262 51.7898 25.288 52.4475 25.118 53.0511C25.0152 53.4117 24.8844 54.3236 25.8617 54.9589C27.1267 55.7792 31.6692 56.8705 33.3136 57.2218C33.8088 57.3283 34.1302 57.8085 34.0367 58.3074C33.9433 58.8063 33.4649 59.1427 32.9698 59.0567C31.7589 58.8587 28.8346 58.4662 26.852 58.4662V58.4662Z" fill="#BF6952"/>
<path d="M18.0192 40.4662C17.4773 40.0943 16.9709 39.7132 16.5075 39.3208C16.3655 39.5319 16.2365 39.7561 16.1263 40.0047C15.1322 42.2488 13.8784 46.5391 13.2655 50.6706L9.25177 51.5114L14.8538 53.1539L15.1434 50.7845C15.6965 47.0978 16.7784 43.1401 17.8323 40.7596C17.8884 40.6381 17.9594 40.5652 18.0192 40.4662V40.4662ZM54.0325 50.8518C53.4308 46.6662 52.1508 42.2806 51.1418 40.0047C51.0278 39.7449 50.8895 39.5113 50.7381 39.2927C50.2635 39.6963 49.774 40.085 49.2638 40.4587C49.3218 40.554 49.3815 40.6456 49.4339 40.7596C50.7195 43.6634 52.0592 48.9178 52.4124 53.1558L58.0574 51.5114L54.0325 50.8518Z" fill="#9B3C07"/>
<path d="M120.731 66.1314H117.05C104.904 66.1314 93.126 56.8221 93.126 43.7905C93.126 36.3442 95.8859 32.6201 95.8859 32.6201C95.8859 32.6201 94.9666 28.896 94.9666 25.1738C94.9666 14.0034 106.744 4.69409 118.89 4.69409C131.036 4.69409 142.814 15.8645 142.814 25.1738C142.814 28.8979 141.894 32.6201 141.894 32.6201C141.894 32.6201 144.654 36.3442 144.654 43.7905C144.654 56.8221 132.876 66.1314 120.731 66.1314Z" fill="#BF6952"/>
<path d="M140.691 29.4677C140.691 22.354 134.923 16.5857 127.809 16.5857C124.345 16.5857 121.205 17.961 118.89 20.1846C116.575 17.9591 113.436 16.5857 109.971 16.5857C102.858 16.5857 97.0894 22.354 97.0894 29.4677C97.0894 33.7823 99.2195 37.5924 102.475 39.93C101.561 42.1947 101.053 44.6874 101.053 47.3034C101.053 57.7021 109.039 64.1487 118.888 64.1487C128.738 64.1487 136.724 57.7021 136.724 47.3034C136.724 44.6855 136.216 42.1947 135.302 39.93C138.561 37.5924 140.691 33.7823 140.691 29.4677V29.4677Z" fill="#D79E84"/>
<path d="M109.547 38.1024C111.611 38.1024 113.284 35.5926 113.284 32.4966C113.284 29.4007 111.611 26.8909 109.547 26.8909C107.483 26.8909 105.81 29.4007 105.81 32.4966C105.81 35.5926 107.483 38.1024 109.547 38.1024Z" fill="#292F33"/>
<path d="M128.233 38.1024C130.297 38.1024 131.97 35.5926 131.97 32.4966C131.97 29.4007 130.297 26.8909 128.233 26.8909C126.169 26.8909 124.496 29.4007 124.496 32.4966C124.496 35.5926 126.169 38.1024 128.233 38.1024Z" fill="#292F33"/>
<path d="M118.89 59.5912C123.963 59.5912 128.284 57.0126 129.905 53.4081C130.576 51.9169 129.438 50.2483 127.744 50.2483H110.037C108.342 50.2483 107.204 51.9169 107.875 53.4081C109.497 57.0126 113.817 59.5912 118.89 59.5912Z" fill="#642116"/>
<path d="M116.087 43.8221C117.119 43.8221 117.956 42.9344 117.956 41.8395C117.956 40.7446 117.119 39.8569 116.087 39.8569C115.055 39.8569 114.219 40.7446 114.219 41.8395C114.219 42.9344 115.055 43.8221 116.087 43.8221Z" fill="#642116"/>
<path d="M121.693 43.7081C122.725 43.7081 123.562 42.8715 123.562 41.8395C123.562 40.8075 122.725 39.9709 121.693 39.9709C120.661 39.9709 119.824 40.8075 119.824 41.8395C119.824 42.8715 120.661 43.7081 121.693 43.7081Z" fill="#642116"/>
<path d="M126.817 1.04853C126.817 1.04853 116.908 -0.934039 112.944 5.01181C108.981 10.9576 120.871 6.99438 120.871 6.99438C120.871 6.99438 122.853 1.04853 126.817 1.04853Z" fill="#BF6952"/>
<path d="M102.073 60.5201C102.306 61.7515 105.401 63.1529 105.401 63.1529L103.941 36.2266L100.204 45.577C100.204 45.577 101.839 59.2868 102.073 60.5201ZM135.707 60.5201C135.356 61.8692 132.437 63.095 132.437 63.095L133.841 36.2266L137.576 45.577C137.576 45.577 136.059 59.1709 135.707 60.5201Z" fill="#9B3C07"/>
<path d="M88.9927 67.9998H103.941L102.05 38.4145L94.5816 30.6262L88.9927 67.9998ZM148.787 67.9998H133.839L135.711 38.4145L143.18 30.6262L148.787 67.9998Z" fill="#BF6952"/>
<path d="M142.449 28.8587C142.449 28.8587 142.823 24.2321 144.686 22.2402C147.119 19.6373 150.049 21.6535 149.823 25.3047C149 38.5455 146.093 42.1836 142.315 44.3568C138.538 46.5318 133.366 46.1245 127.893 40.8588C122.42 35.5931 120.123 32.3493 119.469 30.0266C118.815 27.7021 121.256 25.8148 123.337 26.9976C125.21 28.0608 128.027 31.3103 128.027 31.3103C128.027 31.3103 124.389 26.2726 123.874 24.3255C123.16 21.6329 126.344 20.0259 128.072 21.5096C129.776 22.9727 133.289 27.4068 133.289 27.4068C133.289 27.4068 130.288 22.8026 130.012 20.5846C129.739 18.3946 132.327 16.4588 134.614 18.3685C136.899 20.2801 140.573 25.7886 142.449 28.8587V28.8587ZM95.3309 28.8587C95.3309 28.8587 94.9572 24.2321 93.0942 22.2402C90.6613 19.6373 87.7314 21.6535 87.9575 25.3047C88.7796 38.5455 91.6872 42.1836 95.4654 44.3568C99.2418 46.5318 104.414 46.1245 109.887 40.8588C115.36 35.5931 117.657 32.3493 118.311 30.0266C118.965 27.7021 116.524 25.8148 114.443 26.9976C112.57 28.0608 109.753 31.3103 109.753 31.3103C109.753 31.3103 113.391 26.2726 113.907 24.3255C114.62 21.6329 111.436 20.0259 109.708 21.5096C108.004 22.9727 104.491 27.4068 104.491 27.4068C104.491 27.4068 107.492 22.8026 107.768 20.5846C108.041 18.3946 105.453 16.4588 103.166 18.3685C100.879 20.2782 97.207 25.7886 95.3309 28.8587V28.8587Z" fill="#D79E84"/>
<path d="M137.729 46.5334C134.31 46.5334 130.677 44.8348 127.245 41.533C122.022 36.5103 119.346 33.0384 118.571 30.2804C118.165 28.8397 118.634 27.3766 119.796 26.4666C120.903 25.5996 122.341 25.4576 123.601 26.0798C123.307 25.5043 123.081 24.9811 122.971 24.5663C122.549 22.9761 123.139 21.4532 124.509 20.5937C125.866 19.7416 127.542 19.8238 128.682 20.8029C128.838 20.9393 129.01 21.0963 129.19 21.272C129.141 21.072 129.104 20.8814 129.081 20.702C128.9 19.252 129.655 17.8001 130.957 17.0882C132.316 16.3482 133.904 16.5631 135.208 17.6525C137.301 19.4015 140.22 23.6525 141.917 26.2686C142.266 24.7102 142.894 22.7855 144 21.6008C145.273 20.2386 146.87 19.7846 148.283 20.3919C149.925 21.1 150.895 23.0508 150.751 25.3604C149.937 38.4985 147.096 42.6804 142.776 45.1674C141.194 46.0831 139.488 46.5334 137.729 46.5334V46.5334ZM121.992 27.5672C121.624 27.5672 121.261 27.6906 120.947 27.9372C120.385 28.3782 120.168 29.064 120.366 29.774C121.03 32.1284 123.702 35.5349 128.538 40.1858C133.161 44.6293 137.884 45.8233 141.848 43.5474C144.946 41.7629 148.042 38.8797 148.888 25.2464C148.995 23.5255 148.29 22.4305 147.543 22.1091C146.88 21.8176 146.102 22.0941 145.366 22.8789C144.026 24.314 143.477 27.7373 143.38 28.935C143.346 29.3386 143.058 29.675 142.664 29.7684C142.272 29.8637 141.863 29.6899 141.651 29.3461C139.852 26.4031 136.219 20.93 134.013 19.0876C133.041 18.2766 132.243 18.5139 131.854 18.7288C131.217 19.0764 130.849 19.7752 130.937 20.4703C131.142 22.1147 133.269 25.6669 134.072 26.8983C134.345 27.3168 134.241 27.8737 133.835 28.167C133.433 28.4585 132.867 28.3819 132.557 27.9895C132.521 27.9465 129.08 23.6077 127.461 22.2212C126.876 21.7167 126.032 21.8437 125.499 22.1764C125.182 22.3763 124.475 22.9612 124.774 24.0879C125.161 25.5473 127.798 29.404 128.782 30.7662C129.074 31.1717 128.997 31.736 128.605 32.0462C128.214 32.3527 127.646 32.3041 127.319 31.9266C126.566 31.0559 124.296 28.6192 122.876 27.8139C122.59 27.6476 122.289 27.5672 121.992 27.5672V27.5672Z" fill="#BF6952"/>
<path d="M100.051 46.5334C98.2908 46.5334 96.5867 46.0831 94.9984 45.1693C90.6801 42.6822 87.8398 38.5022 87.0251 25.3623C86.8812 23.0527 87.851 21.1019 89.4954 20.3937C90.8968 19.7883 92.5019 20.2386 93.7763 21.6027C94.8825 22.7855 95.5122 24.7102 95.8617 26.2704C97.5583 23.6563 100.473 19.4052 102.57 17.6544C103.876 16.5612 105.464 16.3482 106.819 17.0901C108.123 17.8001 108.878 19.2539 108.695 20.7039C108.673 20.8833 108.635 21.0739 108.587 21.2738C108.768 21.0982 108.938 20.9393 109.097 20.8048C110.233 19.8294 111.913 19.7453 113.268 20.5955C114.639 21.4551 115.23 22.978 114.809 24.5681C114.699 24.983 114.473 25.5062 114.181 26.0836C115.437 25.4632 116.878 25.6033 117.982 26.4704C119.146 27.3804 119.615 28.8435 119.21 30.2841C118.432 33.0459 115.757 36.5159 110.534 41.5368C107.103 44.8348 103.471 46.5334 100.051 46.5334V46.5334ZM90.7754 21.997C90.5885 21.997 90.4091 22.0343 90.2335 22.1091C89.4879 22.4305 88.7835 23.5255 88.89 25.2464C89.7364 38.8796 92.8327 41.7629 95.9308 43.5474C99.8941 45.8289 104.616 44.633 109.239 40.1858C114.075 35.5367 116.747 32.1303 117.41 29.774C117.61 29.064 117.393 28.3763 116.831 27.9372C116.265 27.4925 115.543 27.4439 114.903 27.8101C113.481 28.6192 111.212 31.0521 110.457 31.9229C110.128 32.3004 109.56 32.3508 109.172 32.0425C108.781 31.7323 108.703 31.168 108.994 30.7625C109.977 29.4003 112.615 25.5435 113.004 24.0842C113.303 22.9574 112.595 22.3726 112.277 22.1726C111.747 21.8381 110.906 21.7092 110.317 22.2175C108.701 23.6058 105.259 27.9428 105.225 27.9858C104.915 28.3745 104.353 28.4548 103.947 28.1633C103.542 27.8718 103.437 27.3131 103.71 26.8945C104.511 25.6631 106.64 22.1091 106.843 20.4666C106.929 19.7715 106.561 19.0726 105.926 18.7251C105.537 18.5139 104.737 18.2747 103.77 19.0838C101.845 20.6908 98.4609 25.5286 96.1289 29.3424C95.9177 29.6881 95.5141 29.8618 95.1161 29.7647C94.7237 29.6713 94.4341 29.3349 94.4004 28.9313C94.3033 27.7335 93.7539 24.3103 92.4141 22.8752C91.8685 22.2978 91.3042 21.997 90.7754 21.997V21.997Z" fill="#BF6952"/>
<path d="M133.816 18.9644C133.884 19.013 133.945 19.0298 134.014 19.0877C136.221 20.9301 139.854 26.4032 141.653 29.3462C141.821 29.6191 142.119 29.7386 142.427 29.748C142.83 27.7822 142.937 25.482 142.924 23.292C142.462 24.2599 142.13 25.3232 141.919 26.2687C140.222 23.6527 137.303 19.4016 135.21 17.6526C133.966 16.6118 132.467 16.3969 131.154 17.0173C132.409 17.4396 133.246 18.1665 133.816 18.9644V18.9644ZM96.127 29.3462C98.459 25.5306 101.843 20.6947 103.768 19.0877C103.897 18.9793 104.012 18.9345 104.134 18.8616C104.693 18.1142 105.5 17.4433 106.673 17.0379C105.35 16.3857 103.829 16.5987 102.568 17.6545C100.471 19.4054 97.5546 23.6564 95.8598 26.2705C95.6617 25.3886 95.3608 24.4001 94.9479 23.4863C94.9423 25.6184 95.0544 27.8364 95.4431 29.7442C95.7196 29.7069 95.9775 29.591 96.127 29.3462V29.3462Z" fill="#9B3C07"/>
</svg>