<svg xmlns="http://www.w3.org/2000/svg" viewBox="0 0 238 238" fill="none">
<path d="M112.389 238C174.46 238 224.778 187.682 224.778 125.611C224.778 63.5404 174.46 13.2222 112.389 13.2222C50.3182 13.2222 0 63.5404 0 125.611C0 187.682 50.3182 238 112.389 238Z" fill="#FFCC4D"/>
<path d="M118.993 188.417C126.296 188.417 132.216 181.017 132.216 171.889C132.216 162.761 126.296 155.361 118.993 155.361C111.691 155.361 105.771 162.761 105.771 171.889C105.771 181.017 111.691 188.417 118.993 188.417Z" fill="#664500"/>
<path d="M53.6227 141.366C52.4195 141.366 51.1965 141.035 50.1056 140.348C47.0182 138.404 46.0927 134.325 48.0363 131.231C54.0921 121.625 72.5041 105.196 98.8758 111.649C102.419 112.515 104.588 116.098 103.722 119.642C102.849 123.185 99.2526 125.34 95.7289 124.488C71.9025 118.657 59.3546 138.08 59.229 138.278C57.9662 140.275 55.8176 141.366 53.6227 141.366V141.366ZM132.778 116.627C130.86 116.627 128.97 115.801 127.661 114.207C125.347 111.384 125.757 107.213 128.586 104.899C149.583 87.6836 173.29 94.5723 182.896 100.628C185.984 102.572 186.909 106.657 184.959 109.745C183.022 112.819 178.956 113.758 175.862 111.827C174.95 111.272 155.685 99.7753 136.962 115.126C135.733 116.138 134.252 116.627 132.778 116.627Z" fill="#664500"/>
<path d="M88.2319 206.749C87.7823 206.749 87.3262 206.69 86.8766 206.564C84.2454 205.817 82.7116 203.08 83.4587 200.442C86.3477 190.261 85.1643 180.417 80.2192 173.429C76.9335 168.788 72.2528 165.952 67.3738 165.641C64.6368 165.476 62.561 163.116 62.7328 160.386C62.9047 157.655 65.2517 155.421 67.9887 155.751C75.8757 156.24 83.2802 160.597 88.3046 167.697C94.9885 177.145 96.7007 190.063 92.9919 203.14C92.3771 205.328 90.3871 206.749 88.2319 206.749ZM161.199 186.513C160.26 186.513 159.315 186.248 158.475 185.693C150.76 180.602 146.443 171.697 146.628 161.265C146.82 150.456 151.976 140.42 159.744 135.686C162.078 134.258 165.126 134.999 166.554 137.346C167.982 139.686 167.241 142.727 164.894 144.155C160.035 147.117 156.67 154.065 156.538 161.437C156.406 168.411 159.11 174.236 163.929 177.416C166.217 178.923 166.845 181.997 165.337 184.285C164.385 185.733 162.812 186.513 161.199 186.513V186.513Z" fill="#E2A62D"/>
<path d="M113.572 17.9829C113.288 17.659 112.845 17.4805 112.323 17.3813C112.323 17.3813 7.04744 -2.60407 2.49238 1.41549C-2.05606 5.44166 4.89222 112.376 4.89222 112.376C4.92527 112.912 5.04427 113.368 5.33516 113.692C9.32827 118.214 36.7908 100.443 66.6797 74.0187C96.5751 47.5875 117.565 22.5049 113.572 17.9829V17.9829Z" fill="#DD2E44"/>
<path d="M2.30731 1.79076C2.20815 1.98909 2.1222 2.26015 2.05609 2.60393C3.10726 11.6678 13.2619 86.2477 19.5888 109.558C29.0823 104.25 38.7279 97.037 50.0594 88.0525C40.4336 70.4339 7.6557 0.96437 2.30731 1.79076Z" fill="#EA596E"/>
<path d="M197.685 193.235L127.786 184.621C120.316 183.947 107.179 183.881 107.854 172.047C108.468 161.317 121.34 162.97 130.854 164.378L201.183 176.106L197.685 193.235V193.235Z" fill="#3B88C3"/>
<path d="M201.176 176.114L173.264 171.327C169.998 170.739 167.089 175.605 166.944 180.755C166.778 186.48 168.444 189.376 171.743 190.05L199.14 193.435L201.176 176.114V176.114Z" fill="#88C9F9"/>
<path d="M230.847 174.143L213.512 190.082L182.526 156.386L199.861 140.446C208.858 132.169 222.993 132.764 231.27 141.762L232.162 142.734C240.433 151.738 239.845 165.866 230.847 174.143Z" fill="#3B88C3"/>
<path d="M213.502 190.092C220.947 183.247 220.047 170.154 211.491 160.849C202.936 151.544 189.964 149.55 182.519 156.395C175.074 163.241 175.974 176.333 184.53 185.638C193.085 194.943 206.057 196.937 213.502 190.092Z" fill="#88C9F9"/>
<path d="M207.304 183.351C211.027 179.928 209.884 172.628 204.751 167.046C199.618 161.463 192.439 159.712 188.717 163.135C184.994 166.558 186.137 173.858 191.27 179.44C196.403 185.023 203.582 186.774 207.304 183.351Z" fill="#226699"/>
<path d="M16.5278 231.389C22.0046 231.389 26.4444 226.949 26.4444 221.472C26.4444 215.996 22.0046 211.556 16.5278 211.556C11.0509 211.556 6.61108 215.996 6.61108 221.472C6.61108 226.949 11.0509 231.389 16.5278 231.389Z" fill="#55ACEE"/>
<path d="M191.722 26.4444C199.025 26.4444 204.944 20.5247 204.944 13.2222C204.944 5.91979 199.025 0 191.722 0C184.42 0 178.5 5.91979 178.5 13.2222C178.5 20.5247 184.42 26.4444 191.722 26.4444Z" fill="#55ACEE"/>
<path d="M32.1564 193.349L16.6996 156.22L2.72375 196.185L32.1564 193.349ZM171.889 33.0555L145.444 39.6666L152.056 13.2222L171.889 33.0555Z" fill="#EA596E"/>
<path d="M211.549 85.9445L238 52.8824L218.167 39.6667L211.549 85.9445Z" fill="#77B255"/>
</svg>