      <svg xmlns="http://www.w3.org/2000/svg" viewBox="0 0 173 170" fill="none">
        <path
          d="M55.7985 33.1497C55.2609 33.6873 54.853 34.3352 54.5122 35.0455L54.4738 35.0071L0.643125 156.27L0.695919 156.323C-0.302368 158.257 1.36784 162.193 4.78986 165.62C8.21187 169.042 12.1474 170.712 14.0816 169.713L14.1296 169.761L135.393 115.926L135.354 115.883C136.06 115.547 136.708 115.139 137.25 114.592C144.747 107.095 132.59 82.7857 110.104 60.2955C87.6093 37.8052 63.3 25.653 55.7985 33.1497V33.1497Z"
          fill="#DD2E44"
        />
        <path
          d="M62.3929 54.8047L1.99657 153.222L0.643125 156.27L0.695919 156.323C-0.302368 158.257 1.36784 162.193 4.78986 165.619C5.90333 166.733 7.06 167.578 8.19267 168.293L81.5908 78.802L62.3929 54.8047Z"
          fill="#EA596E"
        />
        <path
          d="M110.445 59.9213C132.859 82.3443 145.304 106.246 138.229 113.31C131.16 120.385 107.258 107.945 84.8304 85.5312C62.4122 63.1081 49.972 39.1972 57.0416 32.1276C64.116 25.058 88.0173 37.4982 110.445 59.9213V59.9213Z"
          fill="#A0041E"
        />
        <path
          d="M89.2219 62.5273C88.2668 63.3 87.0189 63.7032 85.6991 63.5592C81.5331 63.1081 78.0295 61.6586 75.577 59.3693C72.9805 56.9455 71.699 53.6915 72.0494 50.4327C72.6637 44.7117 78.4039 39.4611 88.19 40.517C91.9959 40.925 93.695 39.7011 93.7525 39.1156C93.8197 38.5348 92.4231 36.975 88.6171 36.5623C84.4512 36.1111 80.9476 34.6617 78.4903 32.3723C75.8938 29.9486 74.6075 26.6946 74.9627 23.4357C75.5866 17.7148 81.322 12.4642 91.0985 13.5249C93.8725 13.8224 95.3364 13.2513 95.9555 12.8817C96.4498 12.5794 96.6466 12.2914 96.6658 12.1234C96.7234 11.5427 95.346 9.98286 91.5304 9.5701C88.8955 9.28214 86.9853 6.9208 87.2781 4.2811C87.5612 1.6462 89.9178 -0.259183 92.5623 0.028784C102.339 1.07987 106.831 7.42955 106.212 13.1553C105.588 18.8859 99.8527 24.1269 90.0666 23.0758C87.2925 22.7734 85.843 23.3493 85.2191 23.7189C84.7248 24.0165 84.5232 24.3092 84.504 24.4724C84.4416 25.058 85.8286 26.613 89.6442 27.0257C99.4207 28.0816 103.913 34.4265 103.294 40.1522C102.675 45.8732 96.9394 51.1238 87.1581 50.0631C84.384 49.7656 82.925 50.3415 82.301 50.7063C81.8019 51.0134 81.6099 51.3014 81.5907 51.4646C81.5283 52.0453 82.9154 53.6051 86.7261 54.0179C89.3562 54.3058 91.2712 56.672 90.9785 59.3069C90.8441 60.6219 90.177 61.7594 89.2219 62.5273V62.5273Z"
          fill="#AA8DD8"
        />
        <path
          d="M147.156 106.913C156.625 104.24 163.158 108.463 164.713 114.007C166.268 119.545 162.898 126.557 153.434 129.221C149.738 130.258 148.63 132.024 148.778 132.585C148.942 133.152 150.818 134.083 154.504 133.041C163.969 130.378 170.501 134.601 172.056 140.14C173.62 145.683 170.242 152.685 160.772 155.354C157.081 156.391 155.968 158.162 156.131 158.723C156.29 159.285 158.161 160.216 161.852 159.179C164.396 158.464 167.055 159.947 167.77 162.496C168.48 165.049 166.997 167.698 164.444 168.418C154.984 171.082 148.447 166.868 146.883 161.32C145.328 155.781 148.702 148.779 158.176 146.11C161.871 145.069 162.98 143.307 162.817 142.741C162.663 142.179 160.791 141.244 157.105 142.28C147.631 144.949 141.104 140.735 139.544 135.182C137.984 129.643 141.358 122.641 150.828 119.968C154.514 118.936 155.622 117.16 155.469 116.603C155.306 116.037 153.439 115.106 149.748 116.142C147.195 116.862 144.55 115.374 143.83 112.826C143.115 110.282 144.603 107.633 147.156 106.913V106.913Z"
          fill="#77B255"
        />
        <path
          d="M110.392 93.9691C108.981 93.9691 107.589 93.35 106.639 92.1693C104.983 90.0959 105.324 87.0771 107.388 85.4213C108.434 84.5814 133.391 64.9804 168.662 70.0246C171.288 70.399 173.112 72.8275 172.737 75.4528C172.363 78.0733 169.954 79.9163 167.304 79.5227C136.141 75.0976 113.613 92.7404 113.392 92.918C112.499 93.6283 111.443 93.9691 110.392 93.9691V93.9691Z"
          fill="#AA8DD8"
        />
        <path
          d="M27.6161 74.0031C27.1601 74.0031 26.6946 73.9359 26.2339 73.8015C23.6949 73.0384 22.2551 70.3651 23.0182 67.8262C28.456 49.7178 33.385 20.8203 27.3281 13.2852C26.6514 12.4309 25.6291 11.591 23.287 11.7685C18.7851 12.1141 19.2122 21.6122 19.217 21.7082C19.4186 24.3527 17.4316 26.6565 14.7919 26.8532C12.109 27.0164 9.84371 25.0678 9.64693 22.4233C9.15258 15.8049 11.2116 3.05752 22.5671 2.19842C27.6353 1.81446 31.8444 3.57586 34.8153 7.27144C46.1948 21.4346 34.6425 62.494 32.214 70.5859C31.59 72.664 29.6799 74.0031 27.6161 74.0031Z"
          fill="#77B255"
        />
        <path
          d="M122.386 50.0053C126.362 50.0053 129.585 46.7821 129.585 42.8061C129.585 38.8301 126.362 35.6069 122.386 35.6069C118.41 35.6069 115.187 38.8301 115.187 42.8061C115.187 46.7821 118.41 50.0053 122.386 50.0053Z"
          fill="#5C913B"
        />
        <path
          d="M9.59891 93.2003C14.9002 93.2003 19.1978 88.9027 19.1978 83.6014C19.1978 78.3 14.9002 74.0024 9.59891 74.0024C4.29758 74.0024 0 78.3 0 83.6014C0 88.9027 4.29758 93.2003 9.59891 93.2003Z"
          fill="#9266CC"
        />
        <path
          d="M155.982 97.9999C159.958 97.9999 163.182 94.7767 163.182 90.8007C163.182 86.8247 159.958 83.6016 155.982 83.6016C152.006 83.6016 148.783 86.8247 148.783 90.8007C148.783 94.7767 152.006 97.9999 155.982 97.9999Z"
          fill="#5C913B"
        />
        <path
          d="M112.787 155.593C116.763 155.593 119.986 152.37 119.986 148.394C119.986 144.418 116.763 141.195 112.787 141.195C108.811 141.195 105.588 144.418 105.588 148.394C105.588 152.37 108.811 155.593 112.787 155.593Z"
          fill="#5C913B"
        />
        <path
          d="M134.385 26.0079C139.686 26.0079 143.984 21.7103 143.984 16.409C143.984 11.1076 139.686 6.81006 134.385 6.81006C129.083 6.81006 124.786 11.1076 124.786 16.409C124.786 21.7103 129.083 26.0079 134.385 26.0079Z"
          fill="#FFCC4D"
        />
        <path
          d="M155.982 45.2057C159.958 45.2057 163.182 41.9826 163.182 38.0066C163.182 34.0306 159.958 30.8074 155.982 30.8074C152.006 30.8074 148.783 34.0306 148.783 38.0066C148.783 41.9826 152.006 45.2057 155.982 45.2057Z"
          fill="#FFCC4D"
        />
        <path
          d="M141.584 64.4037C145.56 64.4037 148.783 61.1806 148.783 57.2046C148.783 53.2286 145.56 50.0054 141.584 50.0054C137.608 50.0054 134.385 53.2286 134.385 57.2046C134.385 61.1806 137.608 64.4037 141.584 64.4037Z"
          fill="#FFCC4D"
        />
        <path
          d="M35.9959 117.198C39.9719 117.198 43.1951 113.975 43.1951 109.999C43.1951 106.023 39.9719 102.799 35.9959 102.799C32.0199 102.799 28.7968 106.023 28.7968 109.999C28.7968 113.975 32.0199 117.198 35.9959 117.198Z"
          fill="#FFCC4D"
        />
      </svg>