<svg xmlns="http://www.w3.org/2000/svg"  viewBox="0 0 79 78" fill="none">
<path d="M72.6742 50.2616C73.4629 46.8425 73.2007 43.185 71.6818 39.5449C70.2128 36.024 67.6799 33.2398 64.5945 31.3699C65.2835 28.7871 65.1015 26.0072 63.8924 23.2446C62.0702 19.0845 58.1289 16.309 53.6828 15.5268C54.2223 14.2874 54.3957 12.7339 53.7608 10.8315C51.5941 4.33129 42.9272 8.66474 36.427 0C31.1402 3.17209 29.9918 7.88689 30.1912 11.8888C24.9455 12.7815 21.9576 13.9169 21.9576 13.9169V13.9212C19.0109 15.1129 16.9265 18.0012 16.9265 21.3791C16.9265 23.2836 17.6155 25.0105 18.7205 26.3886L17.2211 26.9476L17.2233 26.9541C12.1748 28.8413 8.61057 33.4023 8.61057 38.7389C8.61057 41.0075 9.26059 43.1309 10.3873 44.9747C4.27062 47.7243 0 53.6915 0 60.6662C0 70.2388 7.99739 78 17.8625 78C24.9455 78 32.0741 76.4768 38.5136 74.3924C43.3735 76.6458 50.8531 78 62.1136 78C70.8888 78 78.0022 70.8866 78.0022 62.1114C78.0022 57.3966 75.9373 53.1736 72.6742 50.2616Z" fill="#BF6952"/>
<path d="M29.2508 43.3326C33.4391 43.3326 36.8344 38.9672 36.8344 33.5823C36.8344 28.1974 33.4391 23.832 29.2508 23.832C25.0626 23.832 21.6673 28.1974 21.6673 33.5823C21.6673 38.9672 25.0626 43.3326 29.2508 43.3326Z" fill="#F5F8FA"/>
<path d="M50.9181 43.3326C55.1064 43.3326 58.5016 38.9672 58.5016 33.5823C58.5016 28.1974 55.1064 23.832 50.9181 23.832C46.7298 23.832 43.3345 28.1974 43.3345 33.5823C43.3345 38.9672 46.7298 43.3326 50.9181 43.3326Z" fill="#F5F8FA"/>
<path d="M30.3342 38.9989C32.7275 38.9989 34.6676 36.5737 34.6676 33.5821C34.6676 30.5905 32.7275 28.1653 30.3342 28.1653C27.9409 28.1653 26.0007 30.5905 26.0007 33.5821C26.0007 36.5737 27.9409 38.9989 30.3342 38.9989Z" fill="#292F33"/>
<path d="M49.8347 38.9989C52.228 38.9989 54.1682 36.5737 54.1682 33.5821C54.1682 30.5905 52.228 28.1653 49.8347 28.1653C47.4414 28.1653 45.5013 30.5905 45.5013 33.5821C45.5013 36.5737 47.4414 38.9989 49.8347 38.9989Z" fill="#292F33"/>
<path d="M20.4691 53.9385C19.9361 52.8703 20.4756 51.9993 21.6673 51.9993H60.6684C61.8601 51.9993 62.3996 52.8703 61.8666 53.9385C61.8666 53.9385 56.3349 64.9996 41.1678 64.9996C26.0007 64.9996 20.4691 53.9385 20.4691 53.9385Z" fill="#292F33"/>
<path d="M41.1678 56.3328C35.1638 56.3328 29.994 58.3305 27.5348 61.2209C30.7675 63.2901 35.2158 64.9997 41.1678 64.9997C47.1198 64.9997 51.5703 63.2901 54.8009 61.2209C52.3416 58.3305 47.1718 56.3328 41.1678 56.3328Z" fill="#F2ABBA"/>
</svg>