<svg xmlns="http://www.w3.org/2000/svg" viewBox="0 0 52 62" fill="none">
<path d="M51.6689 61.9997V60.2775C51.6689 54.5717 47.0412 49.9441 41.3355 49.9441H10.3352C4.62942 49.9441 0.0017662 54.5717 0.0017662 60.2775V61.9997H51.6689ZM40.9049 35.1931C42.9509 35.5513 45.4154 35.4153 45.0658 36.7724C44.2409 39.9654 40.5811 38.7823 39.9353 38.8184C39.2894 38.8529 40.9049 35.1931 40.9049 35.1931Z" fill="#66757F"/>
<path d="M41.4423 35.5552C44.6714 35.9857 45.8185 36.2716 43.4504 37.2051C42.1208 37.7304 39.5874 45.477 37.7136 44.2973C35.8415 43.1175 41.4423 35.5552 41.4423 35.5552V35.5552Z" fill="#292F33"/>
<path d="M10.7744 35.1931C8.72834 35.5513 6.26382 35.4153 6.61343 36.7724C7.43838 39.9654 11.0981 38.7823 11.744 38.8184C12.3898 38.8529 10.7744 35.1931 10.7744 35.1931Z" fill="#66757F"/>
<path d="M10.237 35.5552C7.00783 35.9857 5.86082 36.2716 8.2289 37.2051C9.55846 37.7304 12.0919 45.477 13.9657 44.2973C15.8395 43.1175 10.237 35.5552 10.237 35.5552V35.5552Z" fill="#292F33"/>
<path d="M32.3299 6.91759C28.9577 5.82569 21.0217 6.12363 19.0377 8.70355C13.8796 8.80344 7.82934 13.4638 7.03539 19.6139C6.25005 25.7003 7.99984 28.5265 8.62329 33.1042C9.32768 38.2899 12.2434 39.9484 14.5753 40.6424C17.9285 45.072 21.4936 44.8826 27.4783 44.8826C39.1672 44.8826 44.7334 37.0619 45.226 23.78C45.5222 15.7458 40.8085 9.66111 32.3299 6.91759V6.91759Z" fill="#FFAC33"/>
<path d="M39.0139 24.3468C37.8824 22.7813 36.4357 21.5206 33.2616 21.0728C34.4517 21.6188 35.5918 23.5029 35.7416 24.5448C35.8898 25.5868 36.0396 26.429 35.0975 25.3887C31.3224 21.2158 27.2114 22.8588 23.1383 20.3099C20.2932 18.5291 19.4269 16.5605 19.4269 16.5605C19.4269 16.5605 19.079 19.1887 14.7648 21.8668C13.5144 22.6435 12.0213 24.3726 11.1946 26.925C10.5987 28.7609 10.7847 30.397 10.7847 33.1939C10.7847 41.3573 17.5118 48.2222 25.8129 48.2222C34.1141 48.2222 40.8412 41.2988 40.8412 33.1939C40.8343 28.1168 40.3038 26.1327 39.0139 24.3468V24.3468Z" fill="#FFDC5D"/>
<path d="M27.4439 37.1396H24.1338C23.6774 37.1396 23.3054 36.7693 23.3054 36.3112V36.0115C23.3054 35.5551 23.6756 35.1814 24.1338 35.1814H27.4439C27.9003 35.1814 28.274 35.5534 28.274 36.0115V36.3112C28.274 36.7693 27.902 37.1396 27.4439 37.1396Z" fill="#C1694F"/>
<path fill-rule="evenodd" clip-rule="evenodd" d="M8.02223 25.4677C8.27712 25.7209 9.55157 26.4856 9.80646 27.2485C10.0614 28.0115 10.5729 32.336 12.1022 33.6087C13.6798 34.9211 19.6284 34.432 20.7685 33.8653C23.3174 32.5943 23.6309 29.0465 24.0821 27.2485C24.337 26.2307 25.8663 26.2307 25.8663 26.2307C25.8663 26.2307 27.3957 26.2307 27.6506 27.2485C28.1018 29.0465 28.4152 32.5943 30.9642 33.8636C32.1043 34.432 38.0529 34.9211 39.6339 33.6105C41.1615 32.3377 41.6713 28.0132 41.9262 27.2485C42.1776 26.4856 43.4555 25.7226 43.7087 25.4677C43.9636 25.2128 43.9636 24.195 43.7087 23.9401C43.1989 23.432 37.1849 22.9774 30.7093 23.6852C29.4176 23.8264 28.9267 24.1933 25.8663 24.1933C22.8076 24.1933 22.3151 23.8247 21.0234 23.6852C14.5495 22.9774 8.53373 23.4303 8.02395 23.9401C7.76733 24.195 7.76733 25.2145 8.02223 25.4677V25.4677Z" fill="#292F33"/>
<path d="M8.36839 14.4576C8.36839 14.4576 10.7089 -0.872006 18.5847 0.0390581C24.6332 0.738287 27.0064 1.4599 32.075 0.206115C35.4282 -0.624003 39.0759 2.16258 41.2752 7.74779C42.6805 11.3094 43.3832 14.7074 43.3832 14.7074C43.3832 14.7074 50.1654 14.0443 50.5563 17.6903C50.949 21.3362 43.0577 25.8123 23.1917 25.8123C12.0574 25.8106 0.570103 21.7513 0.0241538 18.3533C-0.521795 14.9554 8.36839 14.4576 8.36839 14.4576Z" fill="#66757F"/>
<path d="M8.82823 12.3135C8.82823 12.3135 8.36323 14.2148 8.129 15.5358C7.89478 16.8585 8.51823 17.7678 12.7877 18.6771C18.4486 19.8827 31.1794 19.8689 38.7211 18.0175C41.7505 17.2735 43.6915 16.7775 43.459 15.2912C43.1714 13.4519 43.1214 13.4553 42.5273 11.4885C42.5273 11.4885 39.9835 12.3531 36.6251 13.1419C32.044 14.2165 19.4648 14.7108 13.4077 13.3899C10.1802 12.6838 8.82823 12.3135 8.82823 12.3135V12.3135ZM8.59401 36.3439C7.98433 36.5936 13.6247 38.7171 21.4763 38.8549C29.6931 38.9996 32.2128 39.5266 30.339 41.3676C28.3653 43.3051 28.8716 46.3518 29.0111 47.2542C29.1506 48.1567 32.5366 50.554 32.8138 51.6632C33.0911 52.774 30.6972 61.9294 30.6972 61.9294L15.6638 61.4954C11.2463 46.2639 10.6986 46.8547 8.59401 38.0661C8.17895 36.3301 8.59401 36.3439 8.59401 36.3439V36.3439Z" fill="#292F33"/>
<path d="M6.87177 36.4143C6.2621 36.6658 11.9024 38.7876 19.7541 38.9253C27.9709 39.07 30.4905 39.597 28.6167 41.4381C26.6431 43.3756 27.4732 46.4222 27.6127 47.3247C27.7522 48.2271 30.8143 50.6245 31.0933 51.7353C31.3689 52.8445 28.9732 61.9999 28.9732 61.9999L13.9398 61.5659C9.5223 46.3344 8.97462 46.9251 6.87005 38.1365C6.45671 36.4005 6.87177 36.4143 6.87177 36.4143V36.4143Z" fill="#66757F"/>
<path d="M43.1473 36.344C43.7569 36.5937 38.1166 38.7172 30.2666 38.855C22.0498 38.9997 19.5302 39.5267 21.404 41.3678C23.3777 43.3053 26.5294 46.3485 26.3916 47.2509C26.2521 48.1534 19.2064 50.5542 18.9292 51.6633C18.6519 52.7741 21.0458 61.9296 21.0458 61.9296L36.0792 61.4956C40.4967 46.2641 41.0444 46.8548 43.1473 38.0662C43.5623 36.3302 43.1473 36.344 43.1473 36.344Z" fill="#292F33"/>
<path d="M44.7076 36.344C45.3173 36.5937 39.677 38.7172 31.827 38.855C23.6102 38.9997 21.0906 39.5267 22.9644 41.3678C24.938 43.3053 28.0915 46.3485 27.952 47.2509C27.8125 48.1534 20.7668 50.5542 20.4895 51.6633C20.2122 52.7741 22.6061 61.9296 22.6061 61.9296L37.5155 61.9468C41.9331 46.7153 42.6048 46.8548 44.7093 38.0662C45.1227 36.3302 44.7076 36.344 44.7076 36.344Z" fill="#66757F"/>
</svg>